<svg xmlns="http://www.w3.org/2000/svg" width="13.021" height="13.018" viewBox="0 0 13.021 13.018">
  <path id="Icon_awesome-instagram" data-name="Icon awesome-instagram" d="M6.507,5.409A3.338,3.338,0,1,0,9.844,8.747,3.332,3.332,0,0,0,6.507,5.409Zm0,5.508a2.17,2.17,0,1,1,2.17-2.17,2.174,2.174,0,0,1-2.17,2.17ZM10.76,5.273a.779.779,0,1,1-.779-.779A.777.777,0,0,1,10.76,5.273Zm2.211.79a3.853,3.853,0,0,0-1.052-2.728A3.878,3.878,0,0,0,9.191,2.283c-1.075-.061-4.3-.061-5.371,0A3.872,3.872,0,0,0,1.092,3.332,3.865,3.865,0,0,0,.04,6.06c-.061,1.075-.061,4.3,0,5.371a3.853,3.853,0,0,0,1.052,2.728A3.883,3.883,0,0,0,3.82,15.21c1.075.061,4.3.061,5.371,0a3.853,3.853,0,0,0,2.728-1.052,3.878,3.878,0,0,0,1.052-2.728c.061-1.075.061-4.293,0-5.368Zm-1.389,6.521a2.2,2.2,0,0,1-1.237,1.237,14.347,14.347,0,0,1-3.837.261,14.459,14.459,0,0,1-3.837-.261,2.2,2.2,0,0,1-1.237-1.237A14.347,14.347,0,0,1,1.17,8.747a14.459,14.459,0,0,1,.261-3.837A2.2,2.2,0,0,1,2.669,3.672a14.347,14.347,0,0,1,3.837-.261,14.459,14.459,0,0,1,3.837.261,2.2,2.2,0,0,1,1.237,1.237,14.347,14.347,0,0,1,.261,3.837A14.339,14.339,0,0,1,11.582,12.584Z" transform="translate(0.005 -2.238)" fill="#fff"/>
</svg>
