<svg xmlns="http://www.w3.org/2000/svg" width="16.32" height="11.475" viewBox="0 0 16.32 11.475">
  <path id="Icon_awesome-youtube" data-name="Icon awesome-youtube" d="M17.029,6.3a2.051,2.051,0,0,0-1.443-1.452A48.461,48.461,0,0,0,9.21,4.5a48.461,48.461,0,0,0-6.376.343A2.051,2.051,0,0,0,1.391,6.3a21.512,21.512,0,0,0-.341,3.954A21.512,21.512,0,0,0,1.391,14.2a2.02,2.02,0,0,0,1.443,1.429,48.461,48.461,0,0,0,6.376.343,48.461,48.461,0,0,0,6.376-.343A2.02,2.02,0,0,0,17.029,14.2a21.512,21.512,0,0,0,.341-3.954A21.512,21.512,0,0,0,17.029,6.3Zm-9.488,6.38V7.823l4.265,2.427L7.541,12.676Z" transform="translate(-1.05 -4.5)" fill="#fff"/>
</svg>
